<?xml version="1.0" encoding="utf-8"?>
<!-- Generator: Adobe Illustrator 24.3.0, SVG Export Plug-In . SVG Version: 6.00 Build 0)  -->
<svg version="1.1" id="Layer_1" xmlns="http://www.w3.org/2000/svg" xmlns:xlink="http://www.w3.org/1999/xlink" x="0px" y="0px"
	 viewBox="0 0 89.82 90.89" style="enable-background:new 0 0 89.82 90.89;" xml:space="preserve">
<style type="text/css">
	.st0{fill:url(#SVGID_1_);}
	.st1{fill:#FFFFFF;}
	.st2{fill:#8FE288;stroke:#72C06C;stroke-width:3;stroke-miterlimit:10;}
</style>
<linearGradient id="SVGID_1_" gradientUnits="userSpaceOnUse" x1="4.99" y1="46.37" x2="86.25" y2="46.37" gradientTransform="matrix(1 0 0 -1 0 92)">
	<stop  offset="0" style="stop-color:#E85041"/>
	<stop  offset="0.0861" style="stop-color:#EC5A4C"/>
	<stop  offset="0.1804" style="stop-color:#EE6153"/>
	<stop  offset="0.2809" style="stop-color:#EF6355"/>
	<stop  offset="0.614" style="stop-color:#F37A43"/>
	<stop  offset="0.8876" style="stop-color:#F18538"/>
	<stop  offset="1" style="stop-color:#F28935"/>
</linearGradient>
<circle class="st0" cx="45.62" cy="45.63" r="40.63"/>
<g>
	<path class="st1" d="M62.09,47.12v10.82c0,0.44-0.1,0.88-0.22,1.3l0,0c-0.18,0.64-0.28,1.31-0.52,1.93
		c-0.45,1.16-1.09,2.22-1.91,3.17c-1.33,1.54-2.92,2.75-4.75,3.65c-0.07,0.04-0.14,0.08-0.2,0.13c-0.19,0.14-0.42,0.22-0.66,0.22
		h-10.8c-0.21,0-0.43-0.04-0.61-0.15c-0.02-0.01-0.05-0.03-0.08-0.04c-0.44-0.2-0.9-0.35-1.31-0.59c-1.02-0.6-1.84-1.44-2.51-2.4
		c-0.76-1.08-1.48-2.18-2.13-3.32c-0.59-1.03-1.09-2.11-1.62-3.18c-0.39-0.79-0.75-1.59-1.12-2.39c-0.49-1.04-0.96-2.09-1.47-3.13
		c-0.38-0.77-0.79-1.53-1.22-2.28c-0.36-0.64-0.84-1.21-1.01-1.95c0-0.01-0.01-0.03-0.02-0.04c-0.09-0.15-0.17-0.31-0.17-0.48v-0.76
		c0-0.24,0.09-0.61,0.19-0.82l0,0c0.1-0.21,0.16-0.44,0.27-0.64c0.54-0.97,1.37-1.59,2.45-1.79c1.35-0.26,2.5,0.15,3.44,1.17
		c0.63,0.69,1.29,1.34,1.95,2c0.08,0.08,0.21,0.11,0.32,0.16c0.02-0.1,0.06-0.2,0.06-0.3c0-2.42,0-4.83,0-7.25c0-2.34,0-4.68,0-7.02
		c0-0.82,0.21-1.57,0.73-2.22c1.11-1.41,2.88-1.82,4.42-1.12c1.38,0.63,2.11,1.75,2.12,3.3c0.01,2.41,0,4.82,0,7.22
		c0,0.11-0.02,0.23,0.02,0.32c0.03,0.06,0.16,0.12,0.22,0.11c0.17-0.04,0.32-0.13,0.49-0.19c0.92-0.29,1.82-0.23,2.68,0.21
		c0.75,0.38,1.32,0.94,1.68,1.71c0.1,0.21,0.24,0.27,0.47,0.15c0.26-0.13,0.53-0.22,0.81-0.31c0.98-0.3,1.9-0.1,2.76,0.41
		c0.63,0.37,1.11,0.9,1.42,1.58c0.07,0.16,0.17,0.27,0.39,0.18c0.39-0.15,0.79-0.33,1.2-0.41c1.73-0.34,3.55,0.79,4.06,2.46
		c0.01,0.02,0.01,0.04,0.03,0.05C62.01,46.76,62.09,46.93,62.09,47.12z"/>
	<path class="st1" d="M43.33,24.71c0.1,0.06,0.2,0.15,0.31,0.17c2.36,0.45,4.25,1.64,5.64,3.6c1.31,1.85,1.82,3.91,1.5,6.17
		c-0.2,1.42-0.75,2.7-1.58,3.86c-0.12,0.17-0.26,0.25-0.47,0.2c-0.29-0.06-0.59-0.11-0.89-0.14c-0.27-0.03-0.36-0.16-0.36-0.43
		c0.01-1.59,0-3.18,0.01-4.77c0-0.88-0.08-1.74-0.46-2.55c-0.47-1.01-1.17-1.8-2.12-2.37c-1.29-0.78-2.69-0.99-4.14-0.64
		c-1.43,0.35-2.56,1.18-3.36,2.43c-0.6,0.94-0.84,1.99-0.84,3.1c0.01,2.19,0.01,4.39,0,6.58c0,0.1-0.06,0.21-0.09,0.31
		c-0.1-0.04-0.22-0.07-0.3-0.13c-1.1-0.87-1.9-1.97-2.43-3.25c-0.64-1.54-0.86-3.14-0.56-4.81c0.46-2.55,1.8-4.5,3.95-5.91
		c0.94-0.61,1.97-1.02,3.09-1.22c0.14-0.02,0.27-0.12,0.4-0.18C41.55,24.71,42.44,24.71,43.33,24.71z"/>
</g>
<circle class="st2" cx="45.62" cy="45.63" r="40.28"/>
<g>
	<path class="st1" d="M39.3,68.34c-0.99-0.21-1.72-0.8-2.42-1.51c-5.67-5.7-11.36-11.38-17.05-17.06c-1.69-1.69-1.69-3.66,0.01-5.36
		c1.48-1.48,2.95-2.96,4.44-4.43c1.61-1.61,3.63-1.6,5.24,0.01c3.29,3.3,6.57,6.6,9.86,9.9c0.13,0.13,0.25,0.28,0.56,0.63
		c0.15-0.26,0.23-0.5,0.38-0.65c7.58-7.61,15.17-15.2,22.75-22.81c1.02-1.02,2.2-1.44,3.57-1.03c0.56,0.17,1.11,0.51,1.54,0.92
		c1.61,1.54,3.17,3.12,4.73,4.71c1.47,1.5,1.48,3.55,0,5.03C62.72,46.87,52.53,57.05,42.35,67.25c-0.57,0.57-1.25,0.9-2.02,1.09
		C39.99,68.34,39.65,68.34,39.3,68.34z"/>
</g>
</svg>
