<?xml version="1.0" encoding="utf-8"?>
<!-- Generator: Adobe Illustrator 25.1.0, SVG Export Plug-In . SVG Version: 6.00 Build 0)  -->
<svg version="1.1" xmlns="http://www.w3.org/2000/svg" xmlns:xlink="http://www.w3.org/1999/xlink" x="0px" y="0px"
	 viewBox="0 0 504 504" style="enable-background:new 0 0 504 504;" xml:space="preserve">
<g id="Layer_1">
</g>
<g id="Layer_2">
	<polygon points="9.88,46.15 457.79,46.15 494.12,5.58 53.3,5.58 	"/>
	<polygon points="294.56,485.79 335.53,485.79 366.1,449.99 264,121.58 459.09,121.58 494.12,83.21 494.12,42.24 457.14,83.21 
		9.88,83.21 9.88,122.88 220.43,122.88 321.88,449.34 291.53,485.79 	"/>
	<polygon points="314.72,161.9 460.39,161.9 494.12,123.53 494.12,165.8 462.99,200.92 365.45,200.92 443.48,450.64 413.79,485.79 
		374.55,485.79 404.42,449.99 	"/>
	<polyline points="285.59,449.99 192.37,161.9 16.23,161.9 9.88,161.9 9.88,200.92 17.32,200.92 165.05,200.92 254.15,485.79 
		285.59,449.99 	"/>
</g>
</svg>
