<?xml version="1.0" encoding="utf-8"?>
<!-- Generator: Adobe Illustrator 24.3.0, SVG Export Plug-In . SVG Version: 6.00 Build 0)  -->
<svg version="1.1" id="Layer_1" xmlns="http://www.w3.org/2000/svg" xmlns:xlink="http://www.w3.org/1999/xlink" x="0px" y="0px"
	 viewBox="0 0 349.31 48.49" style="enable-background:new 0 0 349.31 48.49;" xml:space="preserve">
<g>
	<path d="M55.55,14.77c0.56,0.56,0.84,1.24,0.84,2.04c0,0.8-0.28,1.48-0.84,2.04c-0.56,0.56-1.24,0.84-2.04,0.84H35.75v17.52
		c0,0.8-0.28,1.48-0.84,2.04c-0.56,0.56-1.24,0.84-2.04,0.84c-0.8,0-1.48-0.28-2.04-0.84c-0.56-0.56-0.84-1.24-0.84-2.04V19.69h-18
		c-0.72-0.08-1.34-0.39-1.86-0.93c-0.52-0.54-0.78-1.19-0.78-1.95c0-0.8,0.28-1.48,0.84-2.04c0.56-0.56,1.24-0.84,2.04-0.84h41.28
		C54.31,13.93,54.99,14.21,55.55,14.77z"/>
	<path d="M104.27,32.08c1.12,0.78,2.26,1.63,3.42,2.55c0.44,0.32,0.82,0.69,1.14,1.11c0.32,0.42,0.48,0.91,0.48,1.47
		c0,0.8-0.28,1.48-0.84,2.04c-0.56,0.56-1.24,0.84-2.04,0.84c-0.68,0-1.36-0.28-2.04-0.84c-1.64-1.2-3.32-2.36-5.04-3.48
		c-1.72-1.12-3.51-2.12-5.37-3c-1.86-0.88-3.79-1.58-5.79-2.1c-2-0.52-4.08-0.78-6.24-0.78H70.01c-0.52,0.08-0.96,0.32-1.32,0.72
		c-0.36,0.4-0.54,0.9-0.54,1.5v5.1c0,0.8-0.29,1.48-0.87,2.04c-0.58,0.56-1.25,0.84-2.01,0.84c-0.8,0-1.48-0.28-2.04-0.84
		c-0.56-0.56-0.84-1.24-0.84-2.04v-5.76c0-1,0.19-1.95,0.57-2.85c0.38-0.9,0.89-1.68,1.53-2.34c0.64-0.66,1.4-1.18,2.28-1.56
		c0.88-0.38,1.84-0.57,2.88-0.57h31.8c0.6,0,1.13-0.21,1.59-0.63c0.46-0.42,0.69-0.95,0.69-1.59c0-0.6-0.23-1.12-0.69-1.56
		c-0.46-0.44-0.99-0.66-1.59-0.66H65.27c-0.8,0-1.48-0.28-2.04-0.84c-0.56-0.56-0.84-1.24-0.84-2.04c0-0.8,0.28-1.48,0.84-2.04
		c0.56-0.56,1.24-0.84,2.04-0.84h35.94c1.12,0,2.17,0.21,3.15,0.63c0.98,0.42,1.84,0.99,2.58,1.71c0.74,0.72,1.32,1.56,1.74,2.52
		s0.63,2,0.63,3.12c0,1.12-0.21,2.16-0.63,3.12s-1,1.8-1.74,2.52c-0.74,0.72-1.6,1.29-2.58,1.71c-0.98,0.42-2.03,0.63-3.15,0.63
		h-0.24C102.05,30.57,103.15,31.3,104.27,32.08z"/>
	<path d="M120.23,39.25c-0.56,0.56-1.24,0.84-2.04,0.84c-0.8,0-1.48-0.28-2.04-0.84c-0.56-0.56-0.84-1.24-0.84-2.04v-20.4
		c0-0.8,0.28-1.48,0.84-2.04c0.56-0.56,1.24-0.84,2.04-0.84c0.8,0,1.48,0.28,2.04,0.84c0.56,0.56,0.84,1.24,0.84,2.04v20.4
		C121.07,38.01,120.78,38.69,120.23,39.25z"/>
	<path d="M133.1,29.38c0.18,0.86,0.52,1.65,1.02,2.37c0.5,0.72,1.18,1.33,2.04,1.83c0.86,0.5,1.99,0.75,3.39,0.75h23.88
		c1.36,0,2.48-0.25,3.36-0.75c0.88-0.5,1.57-1.11,2.07-1.83c0.5-0.72,0.84-1.51,1.02-2.37c0.18-0.86,0.27-1.65,0.27-2.37V16.87
		c0-0.8,0.28-1.48,0.84-2.04c0.56-0.56,1.24-0.84,2.04-0.84c0.8,0,1.48,0.28,2.04,0.84c0.56,0.56,0.84,1.24,0.84,2.04v10.14
		c0,1.52-0.25,3.05-0.75,4.59c-0.5,1.54-1.23,2.94-2.19,4.2c-0.96,1.26-2.12,2.29-3.48,3.09c-1.36,0.8-2.9,1.2-4.62,1.2h-27.36
		c-1.64-0.08-3.1-0.53-4.38-1.35c-1.28-0.82-2.37-1.85-3.27-3.09c-0.9-1.24-1.59-2.62-2.07-4.14c-0.48-1.52-0.72-3.02-0.72-4.5
		V16.87c0-0.8,0.28-1.48,0.84-2.04c0.56-0.56,1.24-0.84,2.04-0.84c0.8,0,1.48,0.28,2.04,0.84c0.56,0.56,0.84,1.24,0.84,2.04v10.14
		C132.83,27.73,132.92,28.52,133.1,29.38z"/>
	<path d="M232.54,37.21c0,0.8-0.28,1.48-0.84,2.04c-0.56,0.56-1.24,0.84-2.04,0.84c-0.8,0-1.48-0.28-2.04-0.84
		c-0.56-0.56-0.84-1.24-0.84-2.04V24.13c0-1.64-0.1-2.46-0.3-2.46c-0.16,0-0.72,0.54-1.68,1.62l-13.2,15
		c-0.52,0.6-1.16,1.05-1.92,1.35c-0.76,0.3-1.58,0.45-2.46,0.45c-0.88,0-1.7-0.15-2.46-0.45c-0.76-0.3-1.4-0.75-1.92-1.35l-13.2-15
		c-0.92-1.08-1.48-1.62-1.68-1.62c-0.2,0-0.3,0.82-0.3,2.46v13.08c0,0.8-0.28,1.48-0.84,2.04c-0.56,0.56-1.24,0.84-2.04,0.84
		c-0.8,0-1.48-0.28-2.04-0.84c-0.56-0.56-0.84-1.24-0.84-2.04V19.69c0-1.6,0.46-2.96,1.38-4.08c0.92-1.12,2.18-1.68,3.78-1.68
		c0.96,0,1.82,0.24,2.58,0.72c0.76,0.48,1.46,1.06,2.1,1.74l13.8,15.72c0.2,0.2,0.45,0.41,0.75,0.63c0.3,0.22,0.61,0.33,0.93,0.33
		c0.32,0,0.63-0.11,0.93-0.33c0.3-0.22,0.55-0.43,0.75-0.63l13.74-15.72h0.06c0.56-0.76,1.24-1.36,2.04-1.8
		c0.8-0.44,1.68-0.66,2.64-0.66c1.6,0,2.86,0.56,3.78,1.68c0.92,1.12,1.38,2.48,1.38,4.08V37.21z"/>
	<path d="M238.54,16.81c0-0.8,0.28-1.48,0.84-2.04c0.56-0.56,1.24-0.84,2.04-0.84h35.94c1.12,0,2.17,0.21,3.15,0.63
		c0.98,0.42,1.84,0.99,2.58,1.71c0.74,0.72,1.32,1.56,1.74,2.52s0.63,2,0.63,3.12c0,1.12-0.21,2.16-0.63,3.12s-1,1.8-1.74,2.52
		c-0.74,0.72-1.6,1.29-2.58,1.71c-0.98,0.42-2.03,0.63-3.15,0.63h-31.2c-0.52,0.08-0.96,0.32-1.32,0.72c-0.36,0.4-0.54,0.9-0.54,1.5
		v5.1c0,0.8-0.29,1.48-0.87,2.04c-0.58,0.56-1.25,0.84-2.01,0.84c-0.8,0-1.48-0.28-2.04-0.84c-0.56-0.56-0.84-1.24-0.84-2.04v-5.76
		c0-1,0.18-1.95,0.54-2.85s0.87-1.68,1.53-2.34c0.66-0.66,1.42-1.18,2.28-1.56c0.86-0.38,1.81-0.57,2.85-0.57h31.86
		c0.6,0,1.13-0.21,1.59-0.63c0.46-0.42,0.69-0.95,0.69-1.59c0-0.6-0.23-1.12-0.69-1.56c-0.46-0.44-0.99-0.66-1.59-0.66h-36.18
		c-0.8,0-1.48-0.28-2.04-0.84C238.82,18.29,238.54,17.61,238.54,16.81z"/>
	<path d="M337.6,39.25c-0.56,0.56-1.24,0.84-2.04,0.84c-0.8,0-1.48-0.28-2.04-0.84c-0.56-0.56-0.84-1.24-0.84-2.04v-7.32h-35.46
		v7.32c0,0.8-0.28,1.48-0.84,2.04c-0.56,0.56-1.24,0.84-2.04,0.84c-0.8,0-1.48-0.28-2.04-0.84c-0.56-0.56-0.84-1.24-0.84-2.04v-20.4
		c0-0.8,0.28-1.48,0.84-2.04c0.56-0.56,1.24-0.84,2.04-0.84c0.8,0,1.48,0.28,2.04,0.84c0.56,0.56,0.84,1.24,0.84,2.04v7.32h35.46
		v-7.32c0-0.8,0.28-1.48,0.84-2.04c0.56-0.56,1.24-0.84,2.04-0.84c0.8,0,1.48,0.28,2.04,0.84c0.56,0.56,0.84,1.24,0.84,2.04v20.4
		C338.44,38.01,338.16,38.69,337.6,39.25z"/>
</g>
</svg>
